<?xml version="1.0" encoding="utf-8"?>
<!-- Generator: Adobe Illustrator 21.0.2, SVG Export Plug-In . SVG Version: 6.00 Build 0)  -->
<svg version="1.1" id="Layer_1" xmlns="http://www.w3.org/2000/svg" xmlns:xlink="http://www.w3.org/1999/xlink" x="0px" y="0px"
	 viewBox="0 0 214.5 214.5" style="enable-background:new 0 0 214.5 214.5;" xml:space="preserve">
<style type="text/css">
	.st0{fill:#FFFFFF;}
</style>
<path class="st0" d="M0,104.4C1.6,45.2,50.9-1.6,110.1,0C169.3,1.6,216,50.9,214.4,110.1c-1.6,59.2-50.9,105.9-110.1,104.3
	C45.2,212.8-1.5,163.6,0,104.4z M166.2,121.5c-3.6-5-9.9-8-15.4-8.7s-9.5,0-14.2,1.4c-6,1.4-10.6,3.6-16.8,6
	c3.3-3.6,7.2-7.8,10-12.8c3.9-6.9,6.2-11.8,6.5-19.1c0.3-7.2-3.6-15.6-9.7-19.9c-4.8-3.3-11.6-3.6-16.8-0.1
	c-2.2,1.4-3.8,2.8-4.8,3.9c-4.6-3.2-9.1-5-14.8-4.1c-5.1,0.5-8.8,5-11.1,9.1c-7.4,15,5.2,30,14.5,40.8c-16.6-4.9-20.7-5-25-5.4
	c-4.3-0.4-11.1,0.1-16,2.9c-4.9,2.8-9.3,7.5-9.7,15.8c-0.3,6.1,3,12.1,9.2,15.6c-3.4,8.2-1.1,16.6,7.5,20.3c9.8,4.3,18.3,1.5,25-3.4
	c6.7-4.9,12.5-11.2,17.5-17.9c-1.6,36.4,21.1,47.6,21.1,47.6l2.5-9c-4.3-3.1-15.7-13.6-14.7-38.2l2,2c5.9,6.1,11.2,11.1,18.3,16.9
	c7.1,5.8,20.6,7.8,28.4-1.7c3.6-4.3,4.7-13,2.5-16.6l0.1-0.8c3.4-2.2,6.2-4.8,7.4-8.8C171.5,131.9,169,125.8,166.2,121.5z M30.1,73
	l-9.6-3.3l-1.4,4.1l1.7,0.6l-2.1,0.8l-2.2,6.4l3.4,5l28.5,9.7l5.1-1.9l2.9-8.6l-3.3-4.8l-5-1.7l-1.5,4.4l5.4,1.8l-2.1,6.1L21,81.7
	l2.1-6.3l5.5,1.9L30.1,73z M172.7,54.8l7-7.4l-3.1-3l-1.2,1.3l0.2-2.2l-4.9-4.6l-6,1L144,61.7l-0.4,5.5l6.6,6.2l5.8-1l3.7-3.9
	l-3.4-3.2l-3.9,4.2l-4.7-4.4L168.6,43l4.9,4.6l-4,4.2L172.7,54.8z M50.2,45.9l-7.6-6.7l-11.3,13l3.3,2.9l1.8-2.1l23,20.1l-1.8,2.1
	l3.2,2.8l11.3-13l-7.5-6.6l-2.8,3.2l4.3,3.7l-3.6,4.1l-10.1-8.8l3.2-3.7l-3.3-2.9l-3.2,3.7l-9.7-8.4l3.4-3.9l4.4,3.8L50.2,45.9z
	 M94.1,54.6l-3.9-9.2l-4.1,1.7l2.2,5.2l-4.5,1.9L72,26.2l2.4-1l-1.7-4l-9,3.8l1.7,4l2.4-1l11.9,28.1l-2.4,1l1.7,4L94.1,54.6z
	 M119.5,24.8V14.7H98.3v10.1h4.6V19h3.7v30.5h-2.8v4.3h10.2v-4.3h-2.6V19h3.8v5.8H119.5z M145.9,27.4l1.6-4.1l-9.2-3.5l-1.6,4.1
	l2.6,1l-10.9,28.5l-2.6-1l-1.5,4l9.2,3.5l1.5-4l-2.3-0.9l10.9-28.5L145.9,27.4z M166.4,95.3l13.8-5.8l2-3.2l-3.6-8.7l11.5-4.8
	l2.7,6.4l-5.3,2.2l1.8,4.3l9.3-3.9l-1.7-4.1l-1.6,0.7l1.1-2l-2.6-6.3l-5.5-1.5l-12.9,5.4l-1.7,3.2l3.6,8.6L164.6,91l-2.7-6.4
	l5.2-2.2l-1.8-4.3l-9.1,3.8l1.8,4.3l1.6-0.7l-1.1,1.9l2.7,6.6L166.4,95.3z"/>
</svg>
